<?xml version="1.0" encoding="UTF-8"?>
<svg width="99px" height="20px" viewBox="0 0 99 20" version="1.1" xmlns="http://www.w3.org/2000/svg" xmlns:xlink="http://www.w3.org/1999/xlink">
    <!-- Generator: Sketch 53 (72520) - https://sketchapp.com -->
    <title>Logo</title>
    <desc>Created with Sketch.</desc>
    <defs>
        <linearGradient x1="95.6379031%" y1="100%" x2="0.666003558%" y2="100%" id="linearGradient-1">
            <stop stop-color="#6F75FF" offset="0%"></stop>
            <stop stop-color="#3284EF" offset="100%"></stop>
        </linearGradient>
    </defs>
    <g id="Page-1" stroke="none" stroke-width="1" fill="none" fill-rule="evenodd">
        <g id="HOME-NETZUN" transform="translate(-33.000000, -26.000000)" fill="url(#linearGradient-1)">
            <g id="Header" transform="translate(33.000000, 0.000000)">
                <g id="Logo" transform="translate(-0.000000, 26.294850)">
                    <path d="M12.7257443,0.13396232 L12.7257443,13.4975465 L3.21567024,0.13396232 L0,0.13396232 L0,18.9183185 L3.18864326,18.9183185 L7.98413065,12.2902888 L12.6715101,18.9183185 L15.88682,18.9183185 L15.88682,0.13396232 L12.7257443,0.13396232 Z M47.2381183,0.13396232 L61.7474632,0.13396232 L51.991804,15.7788095 L61.7474632,15.7788095 L61.7474632,18.9181411 L46.2966785,18.9181411 L56.0793646,3.27347131 L47.2381183,3.27347131 L41.8001095,3.27435848 L41.8001095,18.9181411 L38.639214,18.9181411 L38.639214,3.27435848 L34.6341757,3.27435848 L34.6341757,0.13396232 L47.2381183,0.13396232 Z M3.18864326,5.55420199 L6.0497195,9.57892689 L3.18864326,13.524339 L3.18864326,5.55420199 Z M20.2188847,0.13396232 L32.9448092,0.13396232 L32.9448092,3.27347131 L23.4071676,3.27347131 L23.4071676,7.96995958 L31.3370641,7.96995958 L31.3370641,11.0828535 L23.4071676,11.0828535 L23.4071676,15.7786321 L32.9448092,15.7786321 L32.9448092,18.9181411 L20.2188847,18.9181411 L20.2188847,0.13396232 Z M75.4537463,0 L78.6414887,0 L78.6414887,12.7732628 C78.6414887,16.7710178 75.5353678,19.0522808 71.4748341,19.0522808 C67.5512371,19.0522808 64.3353867,16.6374104 64.3353867,12.7732628 L64.3353867,0 L67.5234894,0 L67.5234894,12.7732628 C67.6870928,14.9462914 69.4582609,15.9127718 71.4748341,15.9127718 C73.4643803,15.9127718 75.4537463,14.8660914 75.4537463,12.7732628 L75.4537463,0 Z M95.672631,0.13396232 L98.8337068,0.13396232 L98.8337068,18.9181411 L95.6178564,18.9181411 L86.1351697,5.55420199 L86.1351697,18.9181411 L82.9472471,18.9181411 L82.9472471,0.13396232 L86.162557,0.13396232 L95.672631,13.497724 L95.672631,0.13396232 Z" id="Combined-Shape"></path>
                </g>
            </g>
        </g>
    </g>
</svg>